<?xml version="1.0" encoding="UTF-8"?>
<svg xmlns="http://www.w3.org/2000/svg" viewBox="0 0 1000 1000">
  <path d="M 417.21 831.97 Q 304.10 831.97 234.43 801.23 Q 164.75 770.49 132.38 717.21 Q 100.00 663.93 100.00 598.36 Q 100.00 539.34 120.49 497.54 Q 140.98 455.74 175.82 434.02 Q 210.66 412.30 254.92 412.30 Q 304.10 412.30 333.61 440.16 Q 363.11 468.03 363.11 516.39 Q 363.11 566.39 331.97 597.95 Q 300.82 629.51 236.07 629.51 Q 215.57 629.51 197.95 624.18 Q 180.33 618.85 164.75 611.48 Q 167.21 651.64 191.39 687.30 Q 215.57 722.95 269.67 745.08 Q 323.77 767.21 417.21 767.21 Q 514.75 767.21 565.98 744.26 Q 617.21 721.31 617.21 681.97 Q 617.21 667.21 607.38 654.92 Q 586.89 663.93 565.98 667.62 Q 545.08 671.31 521.31 671.31 H 318.85 V 610.66 H 523.77 Q 490.16 597.54 468.85 572.54 Q 447.54 547.54 447.54 512.30 Q 447.54 464.75 482.79 438.52 Q 518.03 412.30 568.03 412.30 Q 613.93 412.30 642.62 428.69 Q 671.31 445.08 684.84 471.31 Q 698.36 497.54 698.36 527.05 Q 698.36 555.74 687.30 579.51 Q 676.23 603.28 658.20 621.31 Q 670.49 632.79 677.87 648.36 Q 685.25 663.93 685.25 683.61 Q 685.25 708.20 674.59 734.43 Q 663.93 760.66 635.66 782.79 Q 607.38 804.92 554.51 818.44 Q 501.64 831.97 417.21 831.97 Z M 250.82 470.49 Q 219.67 470.49 197.54 491.80 Q 175.41 513.11 168.03 552.46 Q 179.51 560.66 195.49 566.39 Q 211.48 572.13 231.97 572.13 Q 264.75 572.13 281.56 558.20 Q 298.36 544.26 298.36 519.67 Q 298.36 495.90 285.25 483.20 Q 272.13 470.49 250.82 470.49 Z M 599.18 588.52 Q 600.82 589.34 602.46 589.34 Q 614.75 578.69 622.54 563.93 Q 630.33 549.18 630.33 529.51 Q 630.33 505.74 615.98 488.52 Q 601.64 471.31 570.49 471.31 Q 543.44 471.31 528.28 483.61 Q 513.11 495.90 513.11 516.39 Q 513.11 544.26 538.52 560.66 Q 563.93 577.05 599.18 588.52 Z" fill="black" stroke="none"/>
</svg>