<?xml version="1.0" encoding="UTF-8"?>
<svg xmlns="http://www.w3.org/2000/svg" viewBox="0 0 1000 1000">
  <path d="M 519.86 721.68 Q 472.85 721.68 444.88 705.47 Q 416.92 689.26 391.79 651.98 Q 365.86 693.31 334.65 707.50 Q 303.44 721.68 264.54 721.68 Q 205.37 721.68 169.30 686.83 Q 133.23 651.98 133.23 595.24 Q 133.23 572.54 144.58 547.01 Q 155.93 521.48 181.05 502.84 H 100.00 V 442.86 H 289.67 V 500.41 Q 241.03 510.94 219.96 535.26 Q 198.89 559.57 198.89 591.19 Q 198.89 621.18 217.53 639.41 Q 236.17 657.65 268.59 657.65 Q 309.12 657.65 333.03 631.31 Q 356.94 604.96 360.18 562.01 H 422.59 Q 426.65 611.45 453.80 634.55 Q 480.95 657.65 513.37 657.65 Q 536.07 657.65 555.93 649.54 Q 575.79 641.44 587.94 619.55 Q 600.10 597.67 600.10 556.33 Q 600.10 511.75 583.08 477.71 Q 566.06 443.67 538.10 420.16 Q 510.13 396.66 475.28 383.28 Q 440.43 369.91 405.57 366.67 Q 399.90 367.48 393.41 367.48 Q 369.91 367.48 348.43 358.56 Q 326.95 349.65 309.12 324.92 Q 291.29 300.20 278.32 254.81 L 345.59 232.93 Q 357.75 277.51 369.10 292.10 Q 380.45 306.69 398.28 306.69 Q 414.49 306.69 428.67 296.56 Q 442.86 286.42 468.79 254.00 L 493.92 221.58 Q 521.48 185.92 544.58 164.84 Q 567.68 143.77 593.62 134.04 Q 619.55 124.32 655.22 124.32 L 660.08 186.73 Q 631.71 188.35 612.66 195.64 Q 593.62 202.94 577.81 218.74 Q 562.01 234.55 540.93 261.30 L 522.29 285.61 Q 506.08 306.69 491.49 321.28 Q 578.22 350.46 622.80 413.27 Q 667.38 476.09 667.38 554.71 Q 667.38 611.45 647.92 648.33 Q 628.47 685.21 595.24 703.44 Q 562.01 721.68 519.86 721.68 Z" fill="black" stroke="none"/>
</svg>