<?xml version="1.0" encoding="UTF-8"?>
<svg xmlns="http://www.w3.org/2000/svg" viewBox="0 0 1000 1000">
  <path d="M 180.66 236.65 Q 180.66 174.02 216.73 137.01 Q 252.79 100.00 308.78 100.00 Q 329.66 100.00 346.26 103.32 Q 362.87 106.64 374.26 111.39 L 346.74 178.77 Q 340.09 176.87 331.55 174.97 Q 323.01 173.07 313.52 173.07 Q 286.95 173.07 272.72 190.63 Q 258.48 208.19 258.48 235.71 Q 258.48 273.67 272.72 305.46 Q 286.95 337.25 310.68 370.46 L 237.60 402.73 Q 215.78 366.67 198.22 325.39 Q 180.66 284.10 180.66 236.65 Z M 532.74 900.00 Q 481.49 900.00 445.43 879.12 Q 409.37 858.24 377.11 821.23 Q 351.48 856.35 320.64 878.17 Q 289.80 900.00 238.55 900.00 Q 188.26 900.00 157.89 879.12 Q 127.52 858.24 113.76 825.50 Q 100.00 792.76 100.00 757.65 Q 100.00 695.97 138.91 658.48 Q 177.82 621.00 233.81 621.00 Q 267.97 621.00 294.54 632.86 Q 321.12 644.72 346.74 669.87 Q 372.36 695.02 402.73 735.82 Q 428.35 769.04 448.28 788.97 Q 468.21 808.90 489.09 816.96 Q 509.96 825.03 537.49 825.03 Q 584.93 825.03 610.08 794.66 Q 635.23 764.29 635.23 698.81 Q 635.23 632.38 608.66 570.70 Q 582.09 509.02 535.59 455.87 Q 489.09 402.73 428.83 360.02 Q 368.56 317.32 302.14 288.85 L 338.20 212.93 Q 403.68 240.45 470.11 286.48 Q 536.54 332.50 591.58 394.66 Q 646.62 456.82 680.31 533.69 Q 714.00 610.56 714.00 700.71 Q 714.00 794.66 666.55 847.33 Q 619.10 900.00 532.74 900.00 Z M 174.02 759.55 Q 174.02 788.97 192.53 808.90 Q 211.03 828.83 243.30 828.83 Q 273.67 828.83 294.54 811.74 Q 315.42 794.66 330.60 762.40 Q 303.08 725.39 283.63 708.78 Q 264.18 692.17 235.71 692.17 Q 209.13 692.17 191.58 709.25 Q 174.02 726.33 174.02 759.55 Z" fill="black" stroke="none"/>
</svg>