<?xml version="1.0" encoding="UTF-8"?>
<svg xmlns="http://www.w3.org/2000/svg" viewBox="0 0 1000 1000">
  <path d="M 693.85 900.00 Q 652.28 900.00 625.98 883.88 Q 599.68 867.76 587.38 844.01 Q 575.08 820.25 575.08 797.35 Q 575.08 775.29 582.71 757.05 Q 590.35 738.81 603.92 725.24 H 515.69 Q 514.85 787.17 487.27 834.25 Q 459.70 881.34 410.07 907.21 Q 360.45 933.09 293.43 933.09 Q 226.41 933.09 176.78 907.21 Q 127.15 881.34 99.58 834.25 Q 72.00 787.17 72.00 725.24 H 18.56 V 664.16 H 77.94 Q 100.00 567.44 183.14 524.18 Q 172.11 510.60 162.78 491.09 Q 153.45 471.58 145.81 444.43 L 216.22 421.53 Q 228.95 468.19 240.83 483.46 Q 252.70 498.73 271.37 498.73 Q 288.34 498.73 303.18 488.12 Q 318.03 477.52 345.17 443.58 L 371.47 409.65 Q 400.32 372.32 424.50 350.27 Q 448.67 328.21 475.82 318.03 Q 502.97 307.85 540.30 307.85 L 545.39 373.17 Q 515.69 374.87 495.76 382.50 Q 475.82 390.14 459.28 406.68 Q 442.74 423.22 420.68 451.22 L 401.17 476.67 Q 385.90 496.18 372.32 510.60 Q 425.77 527.57 461.82 567.44 Q 497.88 607.32 509.76 664.16 H 631.07 Q 665.85 664.16 691.30 667.55 Q 715.91 654.83 727.36 639.98 Q 738.81 625.13 738.81 609.86 Q 738.81 592.05 728.21 580.59 Q 717.60 569.14 697.24 569.14 Q 674.34 569.14 659.92 582.29 Q 645.49 595.44 631.92 615.80 L 570.84 592.05 Q 590.35 558.11 620.04 535.63 Q 649.73 513.15 695.55 513.15 Q 743.05 513.15 772.75 537.75 Q 802.44 562.35 802.44 604.77 Q 802.44 631.92 790.14 651.86 Q 777.84 671.79 757.48 687.06 Q 765.11 691.30 771.90 697.24 Q 789.71 711.66 800.32 734.57 Q 810.92 757.48 810.92 789.71 Q 810.92 841.46 779.96 870.73 Q 748.99 900.00 693.85 900.00 Z M 293.43 562.35 Q 230.65 562.35 194.59 591.62 Q 158.54 620.89 146.66 664.16 H 440.19 Q 427.47 619.19 391.41 590.77 Q 355.36 562.35 293.43 562.35 Z M 293.43 866.07 Q 369.78 866.07 407.10 826.19 Q 444.43 786.32 446.98 725.24 H 140.72 Q 144.11 788.87 181.44 827.47 Q 218.77 866.07 293.43 866.07 Z M 637.01 792.26 Q 637.01 818.56 652.70 831.28 Q 668.40 844.01 693.85 844.01 Q 721.85 844.01 735.42 828.74 Q 748.99 813.47 748.99 789.71 Q 748.99 759.17 731.60 743.90 Q 714.21 728.63 684.52 726.09 Q 659.07 739.66 648.04 756.20 Q 637.01 772.75 637.01 792.26 Z" fill="black" stroke="none"/>
</svg>