<?xml version="1.0" encoding="UTF-8"?>
<svg xmlns="http://www.w3.org/2000/svg" viewBox="0 0 1000 1000">
  <path d="M 257.95 690.69 Q 195.67 690.69 153.61 665.01 Q 111.56 639.33 100.00 589.25 L 155.22 574.48 Q 164.21 604.01 187.00 621.99 Q 209.79 639.97 259.87 639.97 Q 310.59 639.97 330.50 626.81 Q 350.40 613.64 350.40 592.46 Q 350.40 573.19 335.31 561.00 Q 320.22 548.80 279.13 546.23 L 237.40 543.02 Q 204.01 540.45 179.94 534.99 Q 155.86 529.53 140.45 517.34 Q 126.97 507.06 119.58 491.33 Q 112.20 475.60 112.20 453.77 Q 112.20 413.96 146.55 387.96 Q 180.90 361.96 250.24 361.96 Q 292.62 361.96 321.19 369.98 Q 349.76 378.01 368.70 397.59 Q 387.64 417.17 399.20 451.85 L 343.98 465.97 Q 335.63 437.72 315.09 423.92 Q 294.54 410.11 250.24 410.11 Q 201.44 410.11 183.47 422.31 Q 165.49 434.51 165.49 453.13 Q 165.49 470.47 179.94 480.42 Q 194.38 490.37 236.76 493.58 L 286.20 496.79 Q 319.58 499.36 340.45 506.42 Q 361.32 513.48 374.80 524.40 Q 389.57 536.60 396.63 553.93 Q 403.69 571.27 403.69 591.81 Q 403.69 639.97 367.09 665.33 Q 330.50 690.69 257.95 690.69 Z M 329.21 812.68 Q 302.89 812.68 285.55 800.16 Q 268.22 787.64 256.02 765.81 Q 243.18 788.92 226.48 800.80 Q 209.79 812.68 182.83 812.68 Q 143.66 812.68 122.15 787.64 Q 100.64 762.60 100.64 722.15 Q 100.64 710.59 101.61 702.25 Q 102.57 693.90 103.85 687.48 L 148.80 692.62 Q 147.51 697.11 146.87 704.49 Q 146.23 711.88 146.23 718.94 Q 146.23 739.49 156.18 753.29 Q 166.13 767.09 186.04 767.09 Q 206.58 767.09 219.10 752.65 Q 231.62 738.20 234.19 712.52 H 277.85 Q 281.06 737.56 293.58 752.33 Q 306.10 767.09 327.93 767.09 Q 346.55 767.09 356.18 753.61 Q 365.81 740.13 365.81 718.30 Q 365.81 711.24 365.17 704.17 Q 364.53 697.11 363.24 692.62 L 407.54 686.20 Q 409.47 693.90 410.43 702.25 Q 411.40 710.59 411.40 722.15 Q 411.40 756.18 394.70 780.58 Q 395.35 792.78 402.09 799.84 Q 408.83 806.90 422.31 806.90 Q 429.37 806.90 435.47 805.62 Q 441.57 804.33 446.07 802.41 L 458.91 843.50 Q 448.64 847.99 438.68 850.24 Q 428.73 852.49 415.89 852.49 Q 392.78 852.49 376.73 841.57 Q 360.67 830.66 354.90 809.47 Q 342.70 812.68 329.21 812.68 Z M 238.68 410.11 Q 220.06 410.11 203.05 403.05 Q 186.04 395.99 171.91 376.40 Q 157.78 356.82 147.51 320.87 L 200.80 303.53 Q 210.43 338.84 219.42 350.40 Q 228.41 361.96 242.54 361.96 Q 255.38 361.96 266.61 353.93 Q 277.85 345.91 298.39 320.22 L 318.30 294.54 Q 340.13 266.29 358.43 249.60 Q 376.73 232.91 397.27 225.20 Q 417.82 217.50 446.07 217.50 L 449.92 266.93 Q 427.45 268.22 412.36 274.00 Q 397.27 279.78 384.75 292.30 Q 372.23 304.82 355.54 326.00 L 340.77 345.26 Q 313.80 379.94 290.69 395.02 Q 267.58 410.11 238.68 410.11 Z" fill="black" stroke="none"/>
</svg>