<?xml version="1.0" encoding="UTF-8"?>
<svg xmlns="http://www.w3.org/2000/svg" viewBox="0 0 1000 1000">
  <path d="M 594.98 900.00 Q 536.36 900.00 495.12 876.12 Q 453.87 852.24 416.96 809.91 Q 387.65 850.07 352.37 875.03 Q 317.10 900.00 258.48 900.00 Q 200.95 900.00 166.21 876.12 Q 131.48 852.24 115.74 814.79 Q 100.00 777.34 100.00 737.18 Q 100.00 666.62 144.50 623.74 Q 189.01 580.87 253.05 580.87 Q 292.13 580.87 322.52 594.44 Q 352.92 608.01 382.23 636.77 Q 411.53 665.54 446.27 712.21 Q 475.58 750.20 498.37 773.00 Q 521.17 795.79 545.05 805.02 Q 568.93 814.25 600.41 814.25 Q 654.68 814.25 683.45 778.97 Q 712.21 743.69 712.21 677.48 Q 712.21 614.52 687.25 567.30 Q 662.28 520.08 618.86 485.89 Q 575.44 451.70 521.17 427.82 L 562.42 344.23 Q 629.72 372.46 683.99 420.22 Q 738.26 467.98 770.28 531.48 Q 802.31 594.98 802.31 672.05 Q 802.31 779.51 748.03 839.76 Q 693.76 900.00 594.98 900.00 Z M 184.67 739.35 Q 184.67 773.00 205.83 795.79 Q 227.00 818.59 263.91 818.59 Q 298.64 818.59 322.52 799.05 Q 346.40 779.51 363.77 742.61 Q 332.29 700.27 310.04 681.28 Q 287.79 662.28 255.22 662.28 Q 224.83 662.28 204.75 681.82 Q 184.67 701.36 184.67 739.35 Z M 282.36 425.64 Q 250.88 425.64 222.12 413.70 Q 193.35 401.76 169.47 368.66 Q 145.59 335.55 128.22 274.76 L 218.32 245.45 Q 234.60 305.16 249.80 324.69 Q 264.99 344.23 288.87 344.23 Q 310.58 344.23 329.58 330.66 Q 348.58 317.10 383.31 273.68 L 416.96 230.26 Q 453.87 182.50 484.80 154.27 Q 515.74 126.05 550.47 113.03 Q 585.21 100.00 632.97 100.00 L 639.48 183.58 Q 601.49 185.75 575.98 195.52 Q 550.47 205.29 529.31 226.46 Q 508.14 247.63 479.92 283.45 L 454.95 316.01 Q 409.36 374.63 370.28 400.14 Q 331.21 425.64 282.36 425.64 Z" fill="black" stroke="none"/>
</svg>