<?xml version="1.0" encoding="UTF-8"?>
<svg xmlns="http://www.w3.org/2000/svg" viewBox="0 0 1000 1000">
  <path d="M 332.11 376.94 Q 307.82 376.94 290.31 368.30 Q 272.80 359.66 258.32 336.78 Q 241.04 361.06 222.59 369.00 Q 204.14 376.94 178.93 376.94 Q 153.24 376.94 136.19 367.83 Q 119.15 358.73 110.74 343.55 Q 102.34 328.37 102.34 310.62 Q 102.34 282.14 119.85 265.32 Q 137.36 248.51 171.45 236.37 Q 190.60 229.36 201.81 221.42 Q 213.02 213.49 213.02 198.07 Q 213.02 187.33 205.31 179.63 Q 197.61 171.92 177.99 171.92 Q 157.91 171.92 148.10 179.63 Q 138.30 187.33 138.30 200.88 Q 138.30 206.95 139.93 212.08 Q 141.56 217.22 142.97 220.49 L 107.94 230.30 Q 100.00 215.82 100.00 196.21 Q 100.00 181.26 107.94 167.95 Q 115.88 154.64 133.16 146.23 Q 150.44 137.83 177.99 137.83 Q 206.01 137.83 221.89 147.17 Q 237.77 156.51 244.54 170.52 Q 251.31 184.53 251.31 198.54 Q 251.31 225.16 235.67 240.11 Q 220.02 255.05 189.20 266.26 Q 164.45 275.60 152.54 285.17 Q 140.63 294.75 140.63 310.16 Q 140.63 323.70 150.20 331.87 Q 159.78 340.05 179.86 340.05 Q 208.81 340.05 223.53 324.87 Q 238.24 309.69 240.11 284.94 H 276.53 Q 278.87 313.43 293.81 326.74 Q 308.76 340.05 328.37 340.05 Q 378.34 340.05 378.34 281.20 Q 378.34 254.12 367.37 233.80 Q 356.39 213.49 337.95 198.77 Q 319.50 184.06 296.15 173.79 L 313.43 137.83 Q 342.38 149.97 365.73 170.52 Q 389.08 191.07 403.09 218.16 Q 417.10 245.24 417.10 278.40 Q 417.10 325.57 393.99 351.26 Q 370.87 376.94 332.11 376.94 Z M 487.62 376.94 Q 456.33 376.94 432.75 361.06 Q 409.17 345.18 390.95 319.50 L 409.63 289.14 Q 429.25 314.83 448.63 327.44 Q 468.01 340.05 490.89 340.05 Q 514.71 340.05 527.32 324.87 Q 539.93 309.69 539.93 281.20 Q 539.93 254.12 528.96 233.80 Q 517.98 213.49 499.53 198.77 Q 481.09 184.06 457.73 173.79 L 475.01 137.83 Q 503.97 149.97 527.32 170.52 Q 550.67 191.07 564.68 218.16 Q 578.69 245.24 578.69 278.40 Q 578.69 324.64 555.34 350.79 Q 531.99 376.94 487.62 376.94 Z M 649.21 376.94 Q 617.92 376.94 594.34 361.06 Q 570.75 345.18 552.54 319.50 L 571.22 289.14 Q 590.83 314.83 609.75 327.44 Q 628.66 340.05 651.55 340.05 Q 676.30 340.05 688.91 325.10 Q 701.52 310.16 701.52 283.07 Q 701.52 257.38 690.54 236.84 Q 679.57 216.29 660.89 200.18 Q 642.21 184.06 619.79 172.85 L 636.60 137.83 H 800.99 Q 831.35 137.83 848.39 141.56 Q 865.44 145.30 878.05 155.58 Q 887.86 163.05 893.93 175.89 Q 900.00 188.73 900.00 206.48 Q 900.00 235.90 882.25 252.25 Q 864.51 268.59 834.15 268.59 Q 810.80 268.59 796.79 259.72 Q 782.78 250.85 776.47 237.30 Q 770.17 223.76 770.17 210.68 Q 770.17 199.01 772.97 189.90 Q 775.77 180.79 780.44 172.85 H 683.30 Q 708.06 191.54 724.17 219.09 Q 740.28 246.64 740.28 280.74 Q 740.28 325.10 716.93 351.02 Q 693.58 376.94 649.21 376.94 Z M 804.26 206.48 Q 804.26 220.49 812.43 229.13 Q 820.61 237.77 836.02 237.77 Q 852.36 237.77 859.14 229.13 Q 865.91 220.49 865.91 207.88 Q 865.91 188.27 854.00 180.56 Q 842.09 172.85 820.61 172.85 H 816.40 Q 804.26 188.73 804.26 206.48 Z" fill="black" stroke="none"/>
</svg>