<?xml version="1.0" encoding="UTF-8"?>
<svg xmlns="http://www.w3.org/2000/svg" viewBox="0 0 1000 1000">
  <path d="M 488.60 900.00 Q 357.26 900.00 270.96 864.72 Q 184.67 829.44 142.33 768.11 Q 100.00 706.78 100.00 629.72 Q 100.00 568.93 125.51 522.80 Q 151.02 476.66 195.52 451.15 Q 240.03 425.64 297.56 425.64 Q 365.94 425.64 404.48 462.55 Q 443.01 499.46 443.01 560.24 Q 443.01 626.46 397.96 666.08 Q 352.92 705.70 271.51 705.70 Q 248.71 705.70 229.17 701.90 Q 209.63 698.10 191.18 690.50 Q 219.40 752.37 296.47 783.31 Q 373.54 814.25 483.18 814.25 Q 580.87 814.25 641.66 793.08 Q 702.44 771.91 735.01 738.81 Q 767.57 705.70 778.43 669.88 Q 757.80 687.25 732.29 696.47 Q 706.78 705.70 672.05 705.70 Q 609.09 705.70 568.93 669.88 Q 528.77 634.06 528.77 572.18 Q 528.77 511.40 567.30 477.20 Q 605.83 443.01 669.88 443.01 Q 674.22 443.01 680.73 444.10 Q 648.17 434.33 608.01 428.90 Q 567.84 423.47 537.45 422.39 Q 522.25 425.64 504.88 425.64 Q 473.41 425.64 444.64 413.70 Q 415.88 401.76 391.99 368.66 Q 368.11 335.55 350.75 274.76 L 440.84 245.45 Q 457.12 305.16 472.32 324.69 Q 487.52 344.23 511.40 344.23 Q 533.11 344.23 552.10 330.66 Q 571.10 317.10 605.83 273.68 L 639.48 230.26 Q 676.39 182.50 707.33 154.27 Q 738.26 126.05 773.00 113.03 Q 807.73 100.00 855.50 100.00 L 862.01 183.58 Q 824.02 185.75 798.51 195.52 Q 773.00 205.29 751.83 226.46 Q 730.66 247.63 702.44 283.45 L 677.48 316.01 Q 655.77 344.23 637.31 362.69 Q 757.80 391.99 812.62 459.84 Q 867.44 527.68 867.44 621.03 Q 867.44 700.27 827.82 763.77 Q 788.20 827.27 704.61 863.64 Q 621.03 900.00 488.60 900.00 Z M 614.52 568.93 Q 614.52 592.81 631.89 611.26 Q 649.25 629.72 686.16 629.72 Q 724.15 629.72 747.49 611.26 Q 770.83 592.81 781.68 561.33 Q 769.74 536.36 745.32 519.54 Q 720.90 502.71 686.16 502.71 Q 659.02 502.71 636.77 518.45 Q 614.52 534.19 614.52 568.93 Z M 292.13 502.71 Q 246.54 502.71 214.52 532.02 Q 182.50 561.33 179.24 606.92 Q 196.61 617.77 216.15 623.74 Q 235.69 629.72 258.48 629.72 Q 311.67 629.72 333.92 610.18 Q 356.17 590.64 356.17 560.24 Q 356.17 532.02 339.35 517.37 Q 322.52 502.71 292.13 502.71 Z" fill="black" stroke="none"/>
</svg>