<?xml version="1.0" encoding="UTF-8"?>
<svg xmlns="http://www.w3.org/2000/svg" viewBox="0 0 1000 1000">
  <path d="M 532.18 845.66 Q 466.98 845.66 429.36 826.44 Q 391.75 807.21 370.01 774.61 Q 343.26 818.91 310.24 832.29 Q 277.22 845.66 238.77 845.66 Q 176.91 845.66 138.45 799.69 Q 100.00 753.71 100.00 673.46 Q 100.00 580.67 148.07 518.81 Q 196.13 456.95 281.40 432.71 L 275.55 314.00 H 350.78 L 344.93 420.17 Q 369.17 417.66 395.92 417.66 Q 411.81 417.66 427.69 418.50 L 422.68 314.00 H 497.91 L 491.22 428.53 Q 524.66 436.89 554.75 450.26 Q 584.85 463.64 612.43 481.19 L 571.47 536.36 Q 528.84 508.78 487.46 494.57 Q 446.08 480.36 390.91 480.36 Q 246.29 480.36 191.95 569.80 H 783.80 Q 818.08 569.80 843.16 573.15 Q 867.40 560.61 878.68 545.98 Q 889.97 531.35 889.97 516.30 Q 889.97 498.75 879.52 487.46 Q 869.07 476.18 849.01 476.18 Q 826.44 476.18 812.23 489.13 Q 798.01 502.09 784.64 522.15 L 724.45 498.75 Q 743.68 465.31 772.94 443.16 Q 802.19 421.00 847.34 421.00 Q 894.15 421.00 923.41 445.25 Q 952.66 469.49 952.66 511.29 Q 952.66 537.20 940.54 557.26 Q 928.42 577.32 908.36 592.37 Q 915.88 596.55 922.57 602.40 Q 940.13 616.61 950.57 639.18 Q 961.02 661.76 961.02 693.52 Q 961.02 744.51 930.51 773.35 Q 900.00 802.19 845.66 802.19 Q 804.70 802.19 778.79 786.31 Q 752.87 770.43 740.75 747.02 Q 728.63 723.62 728.63 701.04 Q 728.63 679.31 736.15 661.34 Q 743.68 643.36 757.05 629.99 H 595.72 Q 629.99 640.02 650.05 665.94 Q 670.11 691.85 670.11 730.30 Q 670.11 786.31 630.41 815.99 Q 590.70 845.66 532.18 845.66 Z M 167.71 670.95 Q 167.71 729.47 189.03 754.55 Q 210.34 779.62 248.80 779.62 Q 289.76 779.62 312.33 752.46 Q 334.90 725.29 338.24 680.98 H 403.45 Q 405.12 707.73 414.32 729.47 Q 423.51 751.20 442.74 763.74 Q 439.39 753.71 436.89 743.68 Q 434.38 733.65 434.38 722.78 Q 434.38 685.16 452.77 662.17 Q 471.16 639.18 503.76 629.99 H 171.06 Q 167.71 649.22 167.71 670.95 Z M 789.66 696.03 Q 789.66 721.94 805.12 734.48 Q 820.59 747.02 845.66 747.02 Q 873.25 747.02 886.62 731.97 Q 900.00 716.93 900.00 693.52 Q 900.00 663.43 882.86 648.38 Q 865.73 633.33 836.47 630.83 Q 811.39 644.20 800.52 660.50 Q 789.66 676.80 789.66 696.03 Z M 492.89 731.97 Q 492.89 746.19 497.07 759.14 Q 501.25 772.10 507.94 782.13 Q 520.48 782.97 535.53 782.97 Q 603.24 782.97 603.24 727.80 Q 603.24 701.88 587.77 690.18 Q 572.31 678.47 548.07 678.47 Q 525.50 678.47 509.20 690.60 Q 492.89 702.72 492.89 731.97 Z" fill="black" stroke="none"/>
</svg>