<?xml version="1.0" encoding="UTF-8"?>
<svg xmlns="http://www.w3.org/2000/svg" viewBox="0 0 1000 1000">
  <path d="M 467.85 844.66 Q 425.53 844.66 395.42 826.75 Q 365.31 808.85 337.64 777.11 Q 314.85 807.22 288.81 825.94 Q 262.77 844.66 218.82 844.66 Q 175.69 844.66 149.64 826.75 Q 123.60 808.85 111.80 780.77 Q 100.00 752.70 100.00 722.58 Q 100.00 669.68 133.37 637.54 Q 166.73 605.39 214.75 605.39 Q 244.05 605.39 266.84 615.56 Q 289.62 625.74 311.60 647.30 Q 333.57 668.87 359.61 703.87 Q 381.59 732.35 398.68 749.44 Q 415.77 766.53 432.86 773.45 Q 449.95 780.37 471.92 780.37 Q 515.06 780.37 537.03 754.32 Q 559.00 728.28 559.00 678.64 Q 559.00 616.79 526.45 574.87 Q 493.90 532.96 438.56 510.99 Q 383.21 489.01 314.04 489.01 H 274.16 L 341.71 427.98 Q 432.04 433.67 495.93 466.63 Q 559.82 499.59 593.18 553.71 Q 626.55 607.83 626.55 677.01 Q 626.55 725.03 609.46 763.28 Q 592.37 801.53 556.97 823.09 Q 521.57 844.66 467.85 844.66 Z M 163.48 724.21 Q 163.48 749.44 179.35 766.53 Q 195.22 783.62 222.89 783.62 Q 248.93 783.62 266.84 768.97 Q 284.74 754.32 297.76 726.65 Q 274.16 694.91 257.48 680.67 Q 240.79 666.43 216.38 666.43 Q 193.59 666.43 178.54 681.08 Q 163.48 695.73 163.48 724.21 Z M 270.91 489.01 Q 247.30 489.01 225.74 480.06 Q 204.17 471.11 186.27 446.29 Q 168.36 421.46 155.34 375.89 L 222.89 353.92 Q 235.10 398.68 246.49 413.33 Q 257.88 427.98 275.79 427.98 Q 292.07 427.98 306.31 417.80 Q 320.55 407.63 346.59 375.08 L 371.82 342.52 Q 399.49 306.71 422.69 285.55 Q 445.88 264.39 471.92 254.63 Q 497.97 244.86 533.77 244.86 L 538.66 307.53 Q 510.17 309.16 491.05 316.48 Q 471.92 323.80 456.05 339.67 Q 440.18 355.54 419.02 382.40 L 400.31 406.82 Q 366.12 450.76 336.83 469.89 Q 307.53 489.01 270.91 489.01 Z" fill="black" stroke="none"/>
</svg>