<?xml version="1.0" encoding="UTF-8"?>
<svg xmlns="http://www.w3.org/2000/svg" viewBox="0 0 1000 1000">
  <path d="M 159.01 608.37 100.00 667.38 C 136.31 704.82 205.53 753.62 304.26 753.62 C 435.89 753.62 517.59 668.51 517.59 560.71 C 517.59 550.50 516.45 541.42 515.32 532.34 C 539.15 543.69 567.52 550.50 600.43 550.50 C 633.33 550.50 658.30 542.55 676.45 534.61 V 829.65 H 762.70 V 173.76 H 900.00 V 101.13 H 555.04 V 173.76 H 676.45 V 452.91 C 656.03 465.39 624.26 476.74 578.87 476.74 C 533.48 476.74 498.30 464.26 471.06 448.37 C 450.64 430.21 426.81 417.73 404.11 412.06 V 407.52 C 440.43 389.36 484.68 339.43 484.68 269.08 C 484.68 174.89 416.60 100.00 301.99 100.00 C 227.09 100.00 171.49 132.91 140.85 172.62 L 200.99 227.09 C 220.28 199.86 250.92 177.16 299.72 177.16 C 360.99 177.16 398.44 215.74 398.44 274.75 C 398.44 342.84 350.78 384.82 280.43 384.82 H 245.25 V 460.85 H 306.52 C 387.09 460.85 431.35 498.30 431.35 561.84 C 431.35 625.39 389.36 677.59 304.26 677.59 C 233.90 677.59 186.24 640.14 159.01 608.37 Z M 823.71 321.28 C 823.71 355.32 850.94 382.55 887.25 382.55 C 924.70 382.55 950.80 355.32 950.80 321.28 C 950.80 282.70 924.70 254.33 887.25 254.33 C 850.94 254.33 823.71 282.70 823.71 321.28 Z M 823.71 677.59 C 823.71 712.77 850.94 740.00 887.25 740.00 C 924.70 740.00 950.80 712.77 950.80 677.59 C 950.80 639.01 924.70 611.77 887.25 611.77 C 850.94 611.77 823.71 639.01 823.71 677.59 Z" fill="black" stroke="none"/>
</svg>