<?xml version="1.0" encoding="UTF-8"?>
<svg xmlns="http://www.w3.org/2000/svg" viewBox="0 0 1000 1000">
  <path d="M 408.50 399.12 592.67 354.55 V 175.07 H 765.10 V 100.00 H 100.00 V 175.07 H 503.52 V 292.38 L 362.76 327.57 C 241.94 356.89 180.94 421.41 180.94 523.46 C 180.94 647.80 284.16 768.62 449.56 768.62 C 490.62 768.62 531.67 760.41 563.34 745.16 L 648.97 900.00 L 753.37 874.19 L 623.17 708.80 C 644.28 690.03 664.22 658.36 664.22 611.44 C 664.22 561.00 631.38 528.15 605.57 515.25 L 541.06 538.71 V 658.36 C 521.11 675.95 483.58 687.68 437.83 687.68 C 340.47 688.86 271.26 619.65 271.26 534.02 C 271.26 468.33 305.28 426.10 408.50 399.12 Z" fill="black" stroke="none"/>
</svg>