<?xml version="1.0" encoding="UTF-8"?>
<svg xmlns="http://www.w3.org/2000/svg" viewBox="0 0 1000 1000">
  <path d="M 846.67 181.27 V 100.00 H 100.00 V 181.27 H 587.62 V 306.98 H 404.76 C 313.33 306.98 260.00 361.59 260.00 440.32 C 260.00 536.83 332.38 618.10 422.54 649.84 L 620.63 607.94 C 646.03 626.98 657.46 654.92 657.46 687.94 C 657.46 769.21 592.70 816.19 500.00 816.19 C 386.98 816.19 298.10 742.54 244.76 635.87 L 173.65 687.94 C 238.41 809.84 350.16 900.00 500.00 900.00 C 652.38 900.00 750.16 804.76 750.16 687.94 C 750.16 607.94 706.98 541.90 652.38 516.51 L 439.05 559.68 C 393.33 546.98 357.78 502.54 357.78 459.37 C 357.78 417.46 375.56 389.52 450.48 389.52 H 681.59 V 181.27 Z" fill="black" stroke="none"/>
</svg>