<?xml version="1.0" encoding="UTF-8"?>
<svg xmlns="http://www.w3.org/2000/svg" viewBox="0 0 1000 1000">
  <path d="M 660.26 700.00 C 660.26 763.58 611.26 809.93 525.17 809.93 C 384.77 809.93 294.70 706.62 294.70 603.31 C 294.70 526.49 326.49 465.56 449.67 433.77 L 670.86 375.50 V 184.77 H 854.97 V 100.00 H 100.00 V 184.77 H 570.20 V 305.30 L 390.07 356.95 C 268.21 390.07 191.39 477.48 191.39 594.04 C 191.39 760.93 339.74 900.00 527.81 900.00 C 664.24 900.00 758.28 807.28 758.28 698.68 C 758.28 608.61 685.43 535.76 590.07 535.76 C 481.46 535.76 428.48 617.88 428.48 684.11 L 509.27 726.49 C 501.32 674.83 529.14 627.15 586.09 627.15 C 629.80 627.15 660.26 660.26 660.26 700.00 Z" fill="black" stroke="none"/>
</svg>