<?xml version="1.0" encoding="UTF-8"?>
<svg xmlns="http://www.w3.org/2000/svg" viewBox="0 0 1000 1000">
  <path d="M 475.49 834.39 C 475.49 798.02 455.73 771.94 419.37 739.53 L 244.66 588.54 V 362.45 H 420.16 V 495.26 C 420.16 539.53 399.60 559.29 365.61 573.52 L 411.46 613.04 C 457.31 590.12 479.45 555.34 479.45 496.05 V 362.45 H 567.98 V 311.86 H 473.91 L 302.37 100.00 L 234.39 115.81 L 299.21 190.12 C 327.67 223.32 380.63 278.66 418.58 311.86 H 100.00 V 362.45 H 185.38 V 613.04 L 386.17 786.17 C 404.35 801.19 415.42 817.00 415.42 836.76 C 415.42 859.68 402.77 880.24 388.54 896.05 V 900.00 H 452.57 C 465.22 883.40 475.49 858.89 475.49 834.39 Z" fill="black" stroke="none"/>
</svg>