<?xml version="1.0" encoding="UTF-8"?>
<svg xmlns="http://www.w3.org/2000/svg" viewBox="0 0 1000 1000">
  <path d="M 413.14 873.19 502.14 835.66 345.58 706.97 H 362.73 C 459.25 706.97 535.39 649.06 535.39 554.69 C 535.39 450.67 437.80 395.98 380.97 376.68 V 372.39 H 688.74 V 788.47 H 770.24 V 168.63 H 900.00 V 100.00 H 100.00 V 168.63 H 688.74 V 302.68 H 271.58 L 240.48 363.81 V 369.17 C 333.78 392.76 452.82 449.60 452.82 546.11 C 452.82 612.60 402.41 650.13 329.49 650.13 C 313.40 650.13 295.17 647.99 278.02 643.70 L 168.63 543.97 C 147.18 557.91 135.39 578.28 135.39 607.24 C 135.39 655.50 177.21 700.54 263.00 708.04 Z" fill="black" stroke="none"/>
</svg>