<?xml version="1.0" encoding="UTF-8"?>
<svg xmlns="http://www.w3.org/2000/svg" viewBox="0 0 1000 1000">
  <path d="M 433.66 152.60 C 452.50 152.60 472.13 158.88 485.48 167.52 L 505.89 118.84 C 492.54 110.21 468.20 100.00 428.95 100.00 C 369.28 100.00 313.54 140.82 313.54 206.77 C 313.54 251.52 338.67 283.71 363.79 299.41 V 302.55 H 100.00 V 352.80 H 381.06 V 432.09 H 263.30 C 206.77 432.09 173.01 465.06 173.01 512.95 C 173.01 574.19 219.33 625.22 275.07 642.49 L 396.76 617.37 C 406.18 623.65 418.74 638.57 418.74 664.47 C 418.74 716.29 366.93 739.84 312.76 739.84 H 286.06 L 184.00 669.97 C 173.01 676.25 161.24 690.38 161.24 710.79 C 161.24 747.69 196.57 786.16 278.21 788.52 L 402.26 900.00 L 465.85 866.24 L 342.59 784.59 V 781.45 C 407.75 779.88 476.84 743.77 476.84 663.69 C 476.84 605.59 439.94 571.05 417.17 560.06 L 284.49 587.54 C 257.02 580.47 234.25 553.78 234.25 526.30 C 234.25 501.18 245.24 483.12 290.78 483.12 H 439.16 V 352.80 H 551.42 V 302.55 H 436.80 C 398.33 286.85 371.64 251.52 371.64 213.05 C 371.64 178.51 395.98 152.60 433.66 152.60 Z" fill="black" stroke="none"/>
</svg>