<?xml version="1.0" encoding="UTF-8"?>
<svg xmlns="http://www.w3.org/2000/svg" viewBox="0 0 1000 1000">
  <path d="M 757.49 439.07 C 757.49 520.64 686.73 552.09 615.97 539.31 L 627.76 607.13 C 732.92 621.87 834.15 557.00 834.15 438.08 C 834.15 335.87 758.48 270.02 669.04 270.02 C 601.23 270.02 559.95 301.47 541.28 327.03 H 537.35 V 162.90 H 900.00 V 100.00 H 100.00 V 162.90 H 463.64 V 416.46 C 463.64 490.17 416.46 540.29 346.68 540.29 C 284.77 540.29 243.49 497.05 243.49 438.08 C 243.49 355.53 314.25 325.06 385.01 336.86 L 373.22 269.04 C 267.08 255.28 165.85 320.15 165.85 439.07 C 165.85 539.31 243.49 607.13 332.92 607.13 C 401.72 607.13 441.03 574.69 459.71 551.11 H 463.64 V 730.96 H 537.35 V 460.69 C 537.35 386.98 584.52 336.86 654.30 336.86 C 715.23 336.86 757.49 378.13 757.49 439.07 Z" fill="black" stroke="none"/>
</svg>