<?xml version="1.0" encoding="UTF-8"?>
<svg xmlns="http://www.w3.org/2000/svg" viewBox="0 0 1000 1000">
  <path d="M 711.48 589.00 H 715.31 V 714.35 H 784.21 V 161.24 H 900.00 V 100.00 H 100.00 V 161.24 H 346.89 V 320.10 C 346.89 361.24 326.79 376.56 299.04 376.56 C 263.64 376.56 245.45 357.42 233.01 333.49 L 169.86 355.50 C 189.00 543.06 300.00 686.60 489.47 686.60 C 593.78 686.60 670.33 639.71 711.48 589.00 Z M 714.35 275.12 H 710.53 C 693.30 257.89 666.51 242.58 617.70 242.58 C 536.36 242.58 470.33 303.83 470.33 389.95 C 470.33 478.95 539.23 528.71 605.26 533.49 L 643.54 482.78 C 578.47 479.90 538.28 442.58 538.28 390.91 C 538.28 340.19 574.64 305.74 625.36 305.74 C 673.21 305.74 717.22 343.06 717.22 411.00 C 717.22 544.02 612.92 622.49 491.39 622.49 C 376.56 622.49 284.69 550.72 257.89 425.36 C 269.38 431.10 284.69 435.89 310.53 435.89 C 370.81 435.89 417.70 393.78 417.70 317.22 V 161.24 H 714.35 Z" fill="black" stroke="none"/>
</svg>