<?xml version="1.0" encoding="UTF-8"?>
<svg xmlns="http://www.w3.org/2000/svg" viewBox="0 0 1000 1000">
  <path d="M 692.87 331.44 H 688.64 C 672.79 313.47 641.08 296.57 598.81 296.57 C 545.97 296.57 499.47 328.27 483.62 385.34 H 479.39 C 463.54 334.61 418.10 300.79 349.41 300.79 C 262.75 300.79 179.26 367.37 179.26 492.07 C 179.26 624.17 264.86 730.91 366.31 785.87 L 420.21 728.80 C 316.64 672.79 261.69 590.36 261.69 494.19 C 261.69 409.64 306.08 373.71 356.80 373.71 C 409.64 373.71 443.46 407.53 443.46 476.22 V 576.62 H 520.61 V 476.22 C 520.61 404.36 556.54 369.48 608.32 369.48 C 644.25 369.48 677.01 388.51 692.87 404.36 V 778.47 H 773.18 V 167.64 H 900.00 V 100.00 H 100.00 V 167.64 H 692.87 Z" fill="black" stroke="none"/>
</svg>