<?xml version="1.0" encoding="UTF-8"?>
<svg xmlns="http://www.w3.org/2000/svg" viewBox="0 0 1000 1000">
  <path d="M 646.72 684.81 C 752.77 684.81 829.99 605.53 829.99 481.98 C 829.99 373.87 773.36 298.71 687.90 285.33 V 165.89 H 900.00 V 100.00 H 100.00 V 165.89 H 611.71 V 288.42 C 562.29 300.77 530.37 330.63 507.72 370.79 C 485.07 334.75 438.74 285.33 359.46 285.33 C 247.23 285.33 175.16 368.73 175.16 488.16 C 175.16 606.56 240.03 686.87 340.93 686.87 C 420.21 686.87 465.51 649.81 495.37 597.30 C 516.99 634.36 565.38 684.81 646.72 684.81 Z M 347.10 617.89 C 282.24 617.89 252.38 558.17 252.38 485.07 C 252.38 404.76 295.62 352.25 357.40 352.25 C 416.09 352.25 453.15 392.41 477.86 440.80 C 475.80 444.92 474.77 448.01 473.75 452.12 C 446.98 540.67 426.38 617.89 347.10 617.89 Z M 647.75 617.89 C 583.91 617.89 549.94 577.73 526.25 527.28 C 527.28 524.20 528.31 520.08 529.34 516.99 C 558.17 432.56 576.71 352.25 654.95 352.25 C 718.79 352.25 752.77 410.94 752.77 485.07 C 752.77 568.47 710.55 617.89 647.75 617.89 Z" fill="black" stroke="none"/>
</svg>