<?xml version="1.0" encoding="UTF-8"?>
<svg xmlns="http://www.w3.org/2000/svg" viewBox="0 0 1000 1000">
  <path d="M 740.21 830.62 C 795.93 830.62 847.44 815.90 883.18 791.72 L 853.75 727.60 C 826.41 747.57 781.21 762.29 739.16 762.29 C 685.55 762.29 646.65 740.21 646.65 696.06 C 646.65 613.01 786.47 576.22 786.47 445.86 C 786.47 376.48 745.47 319.71 673.98 300.79 V 167.28 H 900.00 V 100.00 H 100.00 V 167.28 H 596.19 V 296.58 C 544.68 304.99 499.47 337.58 483.71 382.79 H 479.50 C 463.73 334.43 421.68 299.74 350.20 299.74 C 265.05 299.74 183.05 364.91 183.05 488.96 C 183.05 621.42 267.15 728.65 369.12 781.21 L 421.68 724.44 C 313.40 670.83 263.99 584.63 263.99 491.06 C 263.99 406.96 307.10 371.22 358.61 371.22 C 411.17 371.22 443.76 404.86 443.76 473.19 V 558.34 H 520.50 V 472.14 C 520.50 401.71 564.65 367.02 621.42 367.02 C 675.03 367.02 703.42 398.55 703.42 447.96 C 703.42 545.73 566.75 585.68 566.75 696.06 C 566.75 787.52 647.70 830.62 740.21 830.62 Z" fill="black" stroke="none"/>
</svg>