<?xml version="1.0" encoding="UTF-8"?>
<svg xmlns="http://www.w3.org/2000/svg" viewBox="0 0 1000 1000">
  <path d="M 756.81 875.10 C 804.54 875.10 862.65 859.53 900.00 831.52 L 867.83 778.60 C 839.82 798.31 798.31 812.84 754.73 812.84 C 715.30 812.84 692.48 797.28 692.48 769.26 C 692.48 728.79 744.36 712.19 809.73 693.51 L 790.01 640.60 C 773.41 646.82 746.43 653.05 719.46 653.05 C 684.18 653.05 661.35 639.56 661.35 614.66 C 661.35 561.74 768.22 526.46 768.22 431.00 C 768.22 368.74 732.94 316.86 666.54 298.18 V 166.41 H 889.62 V 100.00 H 100.00 V 166.41 H 589.75 V 294.03 C 538.91 301.30 494.29 333.46 478.73 379.12 H 474.58 C 459.01 331.39 417.51 297.15 346.95 297.15 C 262.91 297.15 181.97 361.48 181.97 483.92 C 181.97 614.66 264.98 720.49 365.63 772.37 L 417.51 716.34 C 310.64 663.42 261.87 578.34 261.87 485.99 C 261.87 402.98 304.41 367.70 355.25 367.70 C 407.13 367.70 439.30 400.91 439.30 468.35 V 552.40 H 515.05 V 467.32 C 515.05 396.76 563.81 363.55 613.62 363.55 C 657.20 363.55 690.40 389.49 690.40 428.92 C 690.40 501.56 581.45 539.95 581.45 616.73 C 581.45 674.84 625.03 696.63 668.61 697.67 L 669.65 700.78 C 640.60 714.27 618.81 743.32 618.81 777.56 C 618.81 842.93 678.99 875.10 756.81 875.10 Z" fill="black" stroke="none"/>
</svg>