<?xml version="1.0" encoding="UTF-8"?>
<svg xmlns="http://www.w3.org/2000/svg" viewBox="0 0 1000 1000">
  <path d="M 770.07 168.72 H 900.00 V 100.00 H 100.00 V 168.72 H 689.53 V 422.15 C 672.35 424.30 654.09 425.37 637.99 425.37 C 613.29 425.37 588.59 423.22 566.04 418.93 C 545.64 327.65 470.47 271.81 370.60 271.81 C 319.06 272.89 283.62 286.85 258.93 300.81 L 288.99 369.53 C 309.40 356.64 339.46 346.98 373.83 348.05 C 440.40 350.20 488.72 393.15 488.72 469.40 C 488.72 554.23 426.44 600.40 357.72 600.40 C 271.81 600.40 221.34 548.86 188.05 496.24 L 132.21 553.15 C 167.65 608.99 243.89 676.64 356.64 676.64 C 471.54 676.64 559.60 601.48 570.34 490.87 C 595.03 497.32 622.95 499.46 649.80 500.54 C 663.76 500.54 676.64 500.54 689.53 498.39 V 789.40 H 770.07 Z" fill="black" stroke="none"/>
</svg>