<?xml version="1.0" encoding="UTF-8"?>
<svg xmlns="http://www.w3.org/2000/svg" viewBox="0 0 1000 1000">
  <path d="M 577.71 844.38 V 371.57 H 739.67 V 844.38 H 801.02 V 371.57 H 900.00 V 319.22 H 793.66 L 616.16 100.00 L 545.81 116.36 L 612.88 193.25 C 642.33 227.61 697.14 284.87 736.40 319.22 H 428.02 V 371.57 H 515.54 V 572.80 C 500.82 581.80 477.91 589.98 445.19 589.98 C 412.47 589.98 387.12 580.98 367.48 569.53 C 352.76 556.44 335.58 547.44 319.22 543.35 V 540.08 C 345.40 526.99 377.30 491.00 377.30 440.29 C 377.30 372.39 328.22 318.40 245.60 318.40 C 191.62 318.40 151.53 342.13 129.45 370.76 L 172.80 410.02 C 186.71 390.39 208.79 374.03 243.97 374.03 C 288.14 374.03 315.13 401.84 315.13 444.38 C 315.13 493.46 280.78 523.72 230.06 523.72 H 204.70 V 578.53 H 248.88 C 306.95 578.53 338.85 605.52 338.85 651.33 C 338.85 697.14 308.59 734.76 247.24 734.76 C 196.52 734.76 162.17 707.77 142.54 684.87 L 100.00 727.40 C 126.18 754.40 176.07 789.57 247.24 789.57 C 342.13 789.57 401.02 728.22 401.02 650.51 C 401.02 643.15 400.20 636.61 399.39 630.06 C 416.56 638.24 437.01 643.15 460.74 643.15 C 484.46 643.15 502.45 637.42 515.54 631.70 V 844.38 Z" fill="black" stroke="none"/>
</svg>