<?xml version="1.0" encoding="UTF-8"?>
<svg xmlns="http://www.w3.org/2000/svg" viewBox="0 0 1000 1000">
  <path d="M 470.92 471.87 H 474.73 V 712.16 H 545.29 V 464.24 C 545.29 385.10 596.78 330.75 665.44 330.75 C 725.51 330.75 765.55 369.85 765.55 428.96 C 765.55 498.57 714.06 550.06 627.29 533.85 L 638.74 600.60 C 748.39 613.95 839.93 542.43 839.93 428.01 C 839.93 329.80 766.51 264.96 677.83 264.96 C 609.18 264.96 566.27 300.24 549.11 323.12 H 545.29 V 161.03 H 900.00 V 100.00 H 100.00 V 161.03 H 202.98 V 372.71 C 202.98 473.78 263.05 528.13 351.73 528.13 C 416.57 528.13 454.71 497.62 470.92 471.87 Z M 474.73 161.03 V 332.66 C 474.73 411.80 429.92 462.34 359.36 462.34 C 305.01 462.34 274.49 433.73 274.49 362.22 V 161.03 Z" fill="black" stroke="none"/>
</svg>