<?xml version="1.0" encoding="UTF-8"?>
<svg xmlns="http://www.w3.org/2000/svg" viewBox="0 0 1000 1000">
  <path d="M 608.76 400.46 C 624.42 391.24 638.25 382.03 650.23 372.81 C 667.74 390.32 694.47 403.23 729.49 405.07 V 408.76 C 653.92 465.90 621.66 503.69 621.66 553.46 C 621.66 620.74 673.27 666.82 759.91 666.82 C 813.36 666.82 856.68 642.86 877.88 625.35 L 848.39 572.81 C 830.88 588.48 798.62 606.91 759.91 606.91 C 713.82 606.91 689.86 582.95 689.86 554.38 C 689.86 518.43 711.98 491.71 820.74 410.60 L 797.70 357.14 H 770.05 C 735.02 357.14 712.90 345.16 699.08 327.65 C 720.28 300.92 731.34 272.35 731.34 238.25 V 229.03 H 665.90 V 239.17 C 665.90 277.88 649.31 306.45 577.42 349.77 L 530.41 378.34 V 158.99 H 900.00 V 100.00 H 100.00 V 158.99 H 462.21 V 391.24 H 458.53 C 428.11 319.35 371.89 273.27 286.18 273.27 C 220.74 273.27 171.89 300.00 140.55 327.65 L 189.40 381.11 C 216.13 354.38 251.15 338.71 289.86 338.71 C 343.32 338.71 394.93 370.05 421.66 442.86 L 175.58 590.32 L 224.42 639.17 L 463.13 484.33 V 691.71 H 530.41 V 448.39 Z" fill="black" stroke="none"/>
</svg>