<?xml version="1.0" encoding="UTF-8"?>
<svg xmlns="http://www.w3.org/2000/svg" viewBox="0 0 1000 1000">
  <path d="M 463.13 691.71 H 530.41 V 448.39 L 600.46 405.07 C 620.74 426.27 654.84 434.56 684.33 433.64 L 685.25 436.41 C 641.01 453.92 613.36 481.57 613.36 516.59 C 613.36 561.75 649.31 582.03 686.18 582.95 L 687.10 585.71 C 662.21 596.77 642.86 618.89 642.86 647.47 C 642.86 703.69 695.39 729.49 758.99 729.49 C 798.62 729.49 846.54 716.59 876.96 694.47 L 849.31 651.15 C 826.27 666.82 793.09 678.80 756.22 678.80 C 723.96 678.80 704.61 665.90 704.61 642.86 C 704.61 609.68 747.00 597.70 801.38 582.03 L 785.71 537.79 C 772.81 541.47 748.85 547.93 723.96 547.93 C 696.31 547.93 676.04 541.47 676.04 515.67 C 676.04 494.47 692.63 476.96 768.20 444.70 L 747.00 394.93 H 713.82 C 687.10 394.93 664.98 382.95 653.00 370.97 C 704.61 331.34 731.34 291.71 731.34 238.25 V 229.03 H 665.90 V 239.17 C 665.90 277.88 649.31 306.45 577.42 349.77 L 530.41 378.34 V 158.99 H 900.00 V 100.00 H 100.00 V 158.99 H 462.21 V 391.24 H 458.53 C 428.11 319.35 371.89 273.27 286.18 273.27 C 220.74 273.27 171.89 300.00 140.55 327.65 L 189.40 381.11 C 216.13 354.38 251.15 338.71 289.86 338.71 C 343.32 338.71 394.93 370.05 421.66 442.86 L 175.58 590.32 L 224.42 639.17 L 463.13 484.33 Z" fill="black" stroke="none"/>
</svg>