<?xml version="1.0" encoding="UTF-8"?>
<svg xmlns="http://www.w3.org/2000/svg" viewBox="0 0 1000 1000">
  <path d="M 577.35 435.91 C 536.46 435.91 494.48 430.39 459.12 420.44 C 462.43 409.39 463.54 396.13 463.54 382.87 V 170.72 H 682.32 V 421.55 C 654.70 430.39 617.13 435.91 577.35 435.91 Z M 291.16 517.68 293.37 514.36 C 303.31 517.68 320.99 517.68 329.83 517.68 C 366.30 516.57 400.55 505.52 424.86 483.43 C 465.75 498.90 525.41 509.94 580.66 509.94 C 624.86 509.94 656.91 506.63 682.32 501.10 V 809.39 H 766.30 V 170.72 H 900.00 V 100.00 H 100.00 V 170.72 H 380.66 V 376.24 C 380.66 427.07 355.25 448.07 307.73 448.07 C 255.80 448.07 225.97 420.44 207.18 398.34 L 144.20 448.07 L 429.28 821.55 L 496.69 777.35 L 367.40 609.39 C 337.57 569.61 315.47 545.30 291.16 517.68 Z" fill="black" stroke="none"/>
</svg>