<?xml version="1.0" encoding="UTF-8"?>
<svg xmlns="http://www.w3.org/2000/svg" viewBox="0 0 1000 1000">
  <path d="M 284.28 385.79 335.03 328.41 C 293.10 318.48 272.14 285.38 272.14 252.28 C 272.14 207.03 304.14 172.83 359.31 172.83 C 412.28 172.83 463.03 216.97 463.03 300.83 C 463.03 407.86 376.97 470.76 263.31 470.76 C 229.10 470.76 186.07 465.24 149.66 452.00 L 100.00 519.31 L 177.24 584.41 L 431.03 831.59 L 500.55 784.14 L 353.79 642.90 C 300.83 592.14 274.34 572.28 242.34 545.79 L 244.55 541.38 C 408.97 552.41 549.10 464.14 549.10 299.72 C 549.10 197.10 484.00 100.00 358.21 100.00 C 256.69 100.00 188.28 169.52 188.28 253.38 C 188.28 316.28 222.48 368.14 284.28 385.79 Z M 683.72 111.03 V 819.45 H 766.48 V 181.66 H 900.00 V 111.03 Z" fill="black" stroke="none"/>
</svg>