<?xml version="1.0" encoding="UTF-8"?>
<svg xmlns="http://www.w3.org/2000/svg" viewBox="0 0 1000 1000">
  <path d="M 638.65 900.00 H 730.67 V 190.80 H 879.14 V 112.27 H 638.65 V 450.92 C 638.65 576.07 563.80 687.73 407.98 687.73 C 266.87 687.73 216.56 572.39 210.43 522.09 C 234.97 515.95 258.28 509.82 282.82 502.45 C 438.65 459.51 520.86 384.66 520.86 271.78 C 520.86 172.39 452.15 100.00 344.17 100.00 C 239.88 100.00 167.48 172.39 167.48 259.51 C 167.48 307.36 188.34 344.17 206.75 362.58 L 293.87 336.81 C 274.23 319.63 259.51 288.96 259.51 263.19 C 259.51 212.88 295.09 183.44 344.17 183.44 C 396.93 183.44 428.83 217.79 428.83 269.33 C 428.83 336.81 396.93 387.12 223.93 436.20 L 100.00 470.55 C 109.82 639.88 220.25 772.39 401.84 772.39 C 528.22 772.39 604.29 709.82 633.74 664.42 H 638.65 Z" fill="black" stroke="none"/>
</svg>