<?xml version="1.0" encoding="UTF-8"?>
<svg xmlns="http://www.w3.org/2000/svg" viewBox="0 0 1000 1000">
  <path d="M 189.32 593.20 C 189.32 749.84 320.06 877.99 501.29 877.99 C 685.11 877.99 810.68 760.19 810.68 610.03 C 810.68 470.23 704.53 391.26 626.86 357.61 V 182.85 H 900.00 V 100.00 H 100.00 V 182.85 H 528.48 V 330.42 L 378.32 377.02 C 252.75 414.56 189.32 480.58 189.32 593.20 Z M 489.64 788.67 C 358.90 788.67 289.00 698.06 289.00 608.74 C 289.00 534.95 314.89 488.35 440.45 452.10 L 544.01 421.04 C 607.44 435.28 712.30 490.94 712.30 602.27 C 712.30 700.65 642.39 788.67 489.64 788.67 Z" fill="black" stroke="none"/>
</svg>