<svg xmlns="http://www.w3.org/2000/svg" viewBox="0 0 1000 1000">
  <path d="M 350 200
C 400 200 450 225 475 275
  500 325 525 400 525 500
  525 600 500 675 450 725
  400 775 325 800 250 775
  200 750 175 700 175 650
  175 600 200 550 250 525
  300 500 350 500 400 525
  450 550 500 600 525 650
  550 700 575 750 600 775
  625 800 650 800 675 775
  700 750 725 700 750 650
  775 600 800 550 800 500
  800 450 775 400 725 375
  675 350 600 350 550 375 Z
M 250 575
C 275 575 300 600 300 625
  300 650 275 675 250 675
  225 675 200 650 200 625
  200 600 225 575 250 575 Z" fill="black"/>
</svg>